<svg version="1.1" xmlns="http://www.w3.org/2000/svg" viewBox="0 0 1036.23828125 1195.07421875" width="1036.23828125" height="1195.07421875">
  <!-- svg-source:excalidraw -->
  
  <defs>
    <style class="style-fonts">
      @font-face {
        font-family: "Virgil";
        src: url("https://excalidraw.com/Virgil.woff2");
      }
      @font-face {
        font-family: "Cascadia";
        src: url("https://excalidraw.com/Cascadia.woff2");
      }
    </style>
  </defs>
  <g stroke-linecap="round" transform="translate(208.498046875 10) rotate(0 138.076171875 149)"><path d="M0 0 C76.64 0, 153.27 0, 276.15 0 M0 0 C101.93 0, 203.86 0, 276.15 0 M276.15 0 C276.15 62.23, 276.15 124.46, 276.15 298 M276.15 0 C276.15 61.35, 276.15 122.69, 276.15 298 M276.15 298 C216.57 298, 156.98 298, 0 298 M276.15 298 C186.84 298, 97.52 298, 0 298 M0 298 C0 223.57, 0 149.13, 0 0 M0 298 C0 191.99, 0 85.98, 0 0" stroke="#364fc7" stroke-width="1" fill="none"></path></g><g stroke-linecap="round"><g transform="translate(208.314453125 61.12890625) rotate(0 136.861328125 0.201171875)"><path d="M0 0 C67.87 0.1, 135.74 0.2, 273.72 0.4 M0 0 C86.05 0.13, 172.1 0.25, 273.72 0.4" stroke="#364fc7" stroke-width="1" fill="none"></path></g></g><mask></mask><g transform="translate(290.90234375 23.140625) rotate(0 53 12)"><text x="0" y="20" font-family="Cascadia, Segoe UI Emoji" font-size="20px" fill="#364fc7" text-anchor="start" style="white-space: pre;" direction="ltr">Component</text></g><g transform="translate(221.8984375 72.48828125) rotate(0 94.5 48)"><text x="0" y="20" font-family="Cascadia, Segoe UI Emoji" font-size="20px" fill="#364fc7" text-anchor="start" style="white-space: pre;" direction="ltr">methodA()</text><text x="0" y="44" font-family="Cascadia, Segoe UI Emoji" font-size="20px" fill="#364fc7" text-anchor="start" style="white-space: pre;" direction="ltr">methodB()</text><text x="0" y="68" font-family="Cascadia, Segoe UI Emoji" font-size="20px" fill="#364fc7" text-anchor="start" style="white-space: pre;" direction="ltr"></text><text x="0" y="92" font-family="Cascadia, Segoe UI Emoji" font-size="20px" fill="#364fc7" text-anchor="start" style="white-space: pre;" direction="ltr">// other methods</text></g><g stroke-linecap="round" transform="translate(10.18359375 432.173828125) rotate(0 138.076171875 149)"><path d="M0 0 C107.4 0, 214.81 0, 276.15 0 M0 0 C85.74 0, 171.47 0, 276.15 0 M276.15 0 C276.15 97.75, 276.15 195.5, 276.15 298 M276.15 0 C276.15 111.82, 276.15 223.64, 276.15 298 M276.15 298 C202.51 298, 128.87 298, 0 298 M276.15 298 C182.2 298, 88.24 298, 0 298 M0 298 C0 223.24, 0 148.48, 0 0 M0 298 C0 213.87, 0 129.73, 0 0" stroke="#364fc7" stroke-width="1" fill="none"></path></g><g stroke-linecap="round"><g transform="translate(10 483.302734375) rotate(0 136.861328125 0.201171875)"><path d="M0 0 C107.68 0.16, 215.36 0.32, 273.72 0.4 M0 0 C92.37 0.14, 184.73 0.27, 273.72 0.4" stroke="#364fc7" stroke-width="1" fill="none"></path></g></g><mask></mask><g transform="translate(49.103515625 445.771484375) rotate(0 100 12)"><text x="0" y="20" font-family="Cascadia, Segoe UI Emoji" font-size="20px" fill="#364fc7" text-anchor="start" style="white-space: pre;" direction="ltr">ConcreteComponent</text></g><g transform="translate(23.583984375 494.662109375) rotate(0 94.5 48)"><text x="0" y="20" font-family="Cascadia, Segoe UI Emoji" font-size="20px" fill="#364fc7" text-anchor="start" style="white-space: pre;" direction="ltr">methodA()</text><text x="0" y="44" font-family="Cascadia, Segoe UI Emoji" font-size="20px" fill="#364fc7" text-anchor="start" style="white-space: pre;" direction="ltr">methodB()</text><text x="0" y="68" font-family="Cascadia, Segoe UI Emoji" font-size="20px" fill="#364fc7" text-anchor="start" style="white-space: pre;" direction="ltr"></text><text x="0" y="92" font-family="Cascadia, Segoe UI Emoji" font-size="20px" fill="#364fc7" text-anchor="start" style="white-space: pre;" direction="ltr">// other methods</text></g><g stroke-linecap="round"><g transform="translate(136.03943421218653 426.640625) rotate(0 97.30031503150086 -58.173828125)"><path d="M0 0 C75.21 -44.97, 150.43 -89.94, 194.6 -116.35" stroke="#364fc7" stroke-width="1.5" fill="none" stroke-dasharray="8 9"></path></g><g transform="translate(136.03943421218653 426.640625) rotate(0 97.30031503150086 -58.173828125)"><path d="M194.6 -116.35 L186.19 -103.93 L179.68 -114.81 L194.6 -116.35" stroke="none" stroke-width="0" fill="#364fc7" fill-rule="evenodd"></path><path d="M194.6 -116.35 C191.35 -111.55, 188.1 -106.75, 186.19 -103.93 M186.19 -103.93 C184.67 -106.47, 183.15 -109.01, 179.68 -114.81 M179.68 -114.81 C184.07 -115.26, 188.46 -115.72, 194.6 -116.35 M194.6 -116.35 C194.6 -116.35, 194.6 -116.35, 194.6 -116.35" stroke="#364fc7" stroke-width="1.5" fill="none"></path></g></g><mask></mask><g stroke-linecap="round" transform="translate(471.2890625 436.3515625) rotate(0 138.076171875 149)"><path d="M0 0 C99.77 0, 199.54 0, 276.15 0 M0 0 C72.82 0, 145.63 0, 276.15 0 M276.15 0 C276.15 112.98, 276.15 225.95, 276.15 298 M276.15 0 C276.15 74.16, 276.15 148.31, 276.15 298 M276.15 298 C179.67 298, 83.18 298, 0 298 M276.15 298 C209.81 298, 143.47 298, 0 298 M0 298 C0 225.89, 0 153.78, 0 0 M0 298 C0 222.15, 0 146.3, 0 0" stroke="#364fc7" stroke-width="1" fill="none"></path></g><g stroke-linecap="round"><g transform="translate(471.10546875 487.48046875) rotate(0 136.861328125 0.201171875)"><path d="M0 0 C102.07 0.15, 204.15 0.3, 273.72 0.4 M0 0 C106.42 0.16, 212.84 0.31, 273.72 0.4" stroke="#364fc7" stroke-width="1" fill="none"></path></g></g><mask></mask><g transform="translate(554.943359375 448.9375) rotate(0 53 12)"><text x="0" y="20" font-family="Cascadia, Segoe UI Emoji" font-size="20px" fill="#364fc7" text-anchor="start" style="white-space: pre;" direction="ltr">Decorator</text></g><g transform="translate(487.279296875 584.00390625) rotate(0 94.5 48)"><text x="0" y="20" font-family="Cascadia, Segoe UI Emoji" font-size="20px" fill="#364fc7" text-anchor="start" style="white-space: pre;" direction="ltr">methodA()</text><text x="0" y="44" font-family="Cascadia, Segoe UI Emoji" font-size="20px" fill="#364fc7" text-anchor="start" style="white-space: pre;" direction="ltr">methodB()</text><text x="0" y="68" font-family="Cascadia, Segoe UI Emoji" font-size="20px" fill="#364fc7" text-anchor="start" style="white-space: pre;" direction="ltr"></text><text x="0" y="92" font-family="Cascadia, Segoe UI Emoji" font-size="20px" fill="#364fc7" text-anchor="start" style="white-space: pre;" direction="ltr">// other methods</text></g><g stroke-linecap="round"><g transform="translate(472.416015625 543.904296875) rotate(0 136.861328125 0.201171875)"><path d="M0 0 C87.58 0.13, 175.17 0.26, 273.72 0.4 M0 0 C91.93 0.14, 183.87 0.27, 273.72 0.4" stroke="#364fc7" stroke-width="1" fill="none"></path></g></g><mask></mask><g transform="translate(487.70703125 504.19140625) rotate(0 117.5 12)"><text x="0" y="20" font-family="Cascadia, Segoe UI Emoji" font-size="20px" fill="#364fc7" text-anchor="start" style="white-space: pre;" direction="ltr">Component wrappedObj</text></g><g stroke-linecap="round"><g transform="translate(580.2856224684991 428.853515625) rotate(0 -105.23288809349913 -59.466796875)"><path d="M0 0 C-80.41 -45.44, -160.82 -90.88, -210.47 -118.93" stroke="#364fc7" stroke-width="1.5" fill="none" stroke-dasharray="8 9"></path></g><g transform="translate(580.2856224684991 428.853515625) rotate(0 -105.23288809349913 -59.466796875)"><path d="M-210.47 -118.93 L-195.51 -117.76 L-201.75 -106.73 L-210.47 -118.93" stroke="none" stroke-width="0" fill="#364fc7" fill-rule="evenodd"></path><path d="M-210.47 -118.93 C-204.75 -118.49, -199.04 -118.04, -195.51 -117.76 M-195.51 -117.76 C-197.69 -113.9, -199.88 -110.04, -201.75 -106.73 M-201.75 -106.73 C-204.66 -110.8, -207.57 -114.87, -210.47 -118.93 M-210.47 -118.93 C-210.47 -118.93, -210.47 -118.93, -210.47 -118.93" stroke="#364fc7" stroke-width="1.5" fill="none"></path></g></g><mask></mask><g mask="url(#mask-WBw1ejPTN5l3Az6TI95EW)" stroke-linecap="round"><g transform="translate(751.66015625 465.53125) rotate(0 -66.260163055605 -213.529296875)"><path d="M0 0 C20.68 -22.36, 168.21 -63, 124.08 -134.18 C79.95 -205.36, -199.98 -378.25, -264.79 -427.06 M0 0 C20.68 -22.36, 168.21 -63, 124.08 -134.18 C79.95 -205.36, -199.98 -378.25, -264.79 -427.06" stroke="#364fc7" stroke-width="1" fill="none"></path></g><g transform="translate(751.66015625 465.53125) rotate(0 -66.260163055605 -213.529296875)"><path d="M-264.79 -427.06 L-249.99 -424.61 L-257.15 -414.15 L-264.79 -427.06" stroke="none" stroke-width="0" fill="#364fc7" fill-rule="evenodd"></path><path d="M-264.79 -427.06 C-261.68 -426.54, -258.56 -426.03, -249.99 -424.61 M-264.79 -427.06 C-261.73 -426.55, -258.67 -426.05, -249.99 -424.61 M-249.99 -424.61 C-251.54 -422.35, -253.09 -420.09, -257.15 -414.15 M-249.99 -424.61 C-252.24 -421.34, -254.48 -418.06, -257.15 -414.15 M-257.15 -414.15 C-260.06 -419.06, -262.97 -423.97, -264.79 -427.06 M-257.15 -414.15 C-258.76 -416.86, -260.37 -419.58, -264.79 -427.06 M-264.79 -427.06 C-264.79 -427.06, -264.79 -427.06, -264.79 -427.06 M-264.79 -427.06 C-264.79 -427.06, -264.79 -427.06, -264.79 -427.06" stroke="#364fc7" stroke-width="1" fill="none"></path></g></g><mask id="mask-WBw1ejPTN5l3Az6TI95EW"><rect x="0" y="0" fill="#fff" width="1240.53125" height="992.58984375"></rect><rect x="725.23828125" y="281.3515625" fill="#000" width="301" height="100" opacity="1"></rect></mask><g transform="translate(725.23828125 281.3515625) rotate(0 -39.838288055605005 -29.349609375)"><text x="150.5" y="16" font-family="Cascadia, Segoe UI Emoji" font-size="16px" fill="#0b7285" text-anchor="middle" style="white-space: pre;" direction="ltr">Each decorator HAS-A (wraps) a </text><text x="150.5" y="36" font-family="Cascadia, Segoe UI Emoji" font-size="16px" fill="#0b7285" text-anchor="middle" style="white-space: pre;" direction="ltr">component, which means the </text><text x="150.5" y="56" font-family="Cascadia, Segoe UI Emoji" font-size="16px" fill="#0b7285" text-anchor="middle" style="white-space: pre;" direction="ltr">decorator has an instance </text><text x="150.5" y="76" font-family="Cascadia, Segoe UI Emoji" font-size="16px" fill="#0b7285" text-anchor="middle" style="white-space: pre;" direction="ltr">variable that holds reference to</text><text x="150.5" y="96" font-family="Cascadia, Segoe UI Emoji" font-size="16px" fill="#0b7285" text-anchor="middle" style="white-space: pre;" direction="ltr">a component.</text></g><g stroke-linecap="round" transform="translate(213.14453125 887.07421875) rotate(0 138.076171875 149)"><path d="M0 0 C93.38 0, 186.77 0, 276.15 0 M0 0 C98.38 0, 196.76 0, 276.15 0 M276.15 0 C276.15 93.4, 276.15 186.81, 276.15 298 M276.15 0 C276.15 64.2, 276.15 128.4, 276.15 298 M276.15 298 C206.41 298, 136.66 298, 0 298 M276.15 298 C175.91 298, 75.67 298, 0 298 M0 298 C0 214.89, 0 131.78, 0 0 M0 298 C0 199.4, 0 100.8, 0 0" stroke="#364fc7" stroke-width="1" fill="none"></path></g><g stroke-linecap="round"><g transform="translate(212.9609375 938.203125) rotate(0 136.861328125 0.201171875)"><path d="M0 0 C94.19 0.14, 188.38 0.28, 273.72 0.4 M0 0 C67.77 0.1, 135.55 0.2, 273.72 0.4" stroke="#364fc7" stroke-width="1" fill="none"></path></g></g><mask></mask><g transform="translate(252.064453125 900.671875) rotate(0 106 12)"><text x="0" y="20" font-family="Cascadia, Segoe UI Emoji" font-size="20px" fill="#364fc7" text-anchor="start" style="white-space: pre;" direction="ltr">ConcreteDecoratorA</text></g><g transform="translate(226.544921875 949.5625) rotate(0 94.5 60)"><text x="0" y="20" font-family="Cascadia, Segoe UI Emoji" font-size="20px" fill="#364fc7" text-anchor="start" style="white-space: pre;" direction="ltr">methodA()</text><text x="0" y="44" font-family="Cascadia, Segoe UI Emoji" font-size="20px" fill="#364fc7" text-anchor="start" style="white-space: pre;" direction="ltr">methodB()</text><text x="0" y="68" font-family="Cascadia, Segoe UI Emoji" font-size="20px" fill="#364fc7" text-anchor="start" style="white-space: pre;" direction="ltr">newBehavior()</text><text x="0" y="92" font-family="Cascadia, Segoe UI Emoji" font-size="20px" fill="#364fc7" text-anchor="start" style="white-space: pre;" direction="ltr"></text><text x="0" y="116" font-family="Cascadia, Segoe UI Emoji" font-size="20px" fill="#364fc7" text-anchor="start" style="white-space: pre;" direction="ltr">// other methods</text></g><g stroke-linecap="round" transform="translate(675.38671875 885.59375) rotate(0 138.076171875 149)"><path d="M0 0 C84.77 0, 169.53 0, 276.15 0 M0 0 C57.22 0, 114.45 0, 276.15 0 M276.15 0 C276.15 79.12, 276.15 158.24, 276.15 298 M276.15 0 C276.15 100.64, 276.15 201.28, 276.15 298 M276.15 298 C171.06 298, 65.97 298, 0 298 M276.15 298 C201.78 298, 127.4 298, 0 298 M0 298 C0 191.48, 0 84.95, 0 0 M0 298 C0 217.67, 0 137.34, 0 0" stroke="#364fc7" stroke-width="1" fill="none"></path></g><g stroke-linecap="round"><g transform="translate(675.203125 936.72265625) rotate(0 136.861328125 0.201171875)"><path d="M0 0 C58.93 0.09, 117.86 0.17, 273.72 0.4 M0 0 C77.12 0.11, 154.24 0.23, 273.72 0.4" stroke="#364fc7" stroke-width="1" fill="none"></path></g></g><mask></mask><g transform="translate(707.916015625 899.91015625) rotate(0 106 12)"><text x="0" y="20" font-family="Cascadia, Segoe UI Emoji" font-size="20px" fill="#364fc7" text-anchor="start" style="white-space: pre;" direction="ltr">ConcreteDecoratorB</text></g><g transform="translate(691.376953125 1033.24609375) rotate(0 94.5 48)"><text x="0" y="20" font-family="Cascadia, Segoe UI Emoji" font-size="20px" fill="#364fc7" text-anchor="start" style="white-space: pre;" direction="ltr">methodA()</text><text x="0" y="44" font-family="Cascadia, Segoe UI Emoji" font-size="20px" fill="#364fc7" text-anchor="start" style="white-space: pre;" direction="ltr">methodB()</text><text x="0" y="68" font-family="Cascadia, Segoe UI Emoji" font-size="20px" fill="#364fc7" text-anchor="start" style="white-space: pre;" direction="ltr"></text><text x="0" y="92" font-family="Cascadia, Segoe UI Emoji" font-size="20px" fill="#364fc7" text-anchor="start" style="white-space: pre;" direction="ltr">// other methods</text></g><g stroke-linecap="round"><g transform="translate(676.513671875 993.146484375) rotate(0 136.861328125 0.201171875)"><path d="M0 0 C104.66 0.15, 209.31 0.31, 273.72 0.4 M0 0 C106.04 0.16, 212.07 0.31, 273.72 0.4" stroke="#364fc7" stroke-width="1" fill="none"></path></g></g><mask></mask><g transform="translate(691.8046875 953.43359375) rotate(0 88.5 12)"><text x="0" y="20" font-family="Cascadia, Segoe UI Emoji" font-size="20px" fill="#364fc7" text-anchor="start" style="white-space: pre;" direction="ltr">Object newState</text></g><g stroke-linecap="round"><g transform="translate(359.5199974684991 880.376953125) rotate(0 106.48781503150087 -68.681640625)"><path d="M0 0 C75.01 -48.38, 150.03 -96.76, 212.98 -137.36" stroke="#364fc7" stroke-width="1.5" fill="none" stroke-dasharray="8 9"></path></g><g transform="translate(359.5199974684991 880.376953125) rotate(0 106.48781503150087 -68.681640625)"><path d="M212.98 -137.36 L204.99 -124.67 L198.12 -135.32 L212.98 -137.36" stroke="none" stroke-width="0" fill="#364fc7" fill-rule="evenodd"></path><path d="M212.98 -137.36 C210.16 -132.89, 207.35 -128.42, 204.99 -124.67 M204.99 -124.67 C202.61 -128.35, 200.24 -132.03, 198.12 -135.32 M198.12 -135.32 C202.48 -135.92, 206.84 -136.52, 212.98 -137.36 M212.98 -137.36 C212.98 -137.36, 212.98 -137.36, 212.98 -137.36" stroke="#364fc7" stroke-width="1.5" fill="none"></path></g></g><mask></mask><g stroke-linecap="round"><g transform="translate(814.2934349684991 877.380859375) rotate(0 -88.15866934349913 -67.84765625)"><path d="M0 0 C-70.21 -54.04, -140.42 -108.07, -176.32 -135.7" stroke="#364fc7" stroke-width="1.5" fill="none" stroke-dasharray="8 9"></path></g><g transform="translate(814.2934349684991 877.380859375) rotate(0 -88.15866934349913 -67.84765625)"><path d="M-176.32 -135.7 L-161.68 -132.43 L-169.41 -122.38 L-176.32 -135.7" stroke="none" stroke-width="0" fill="#364fc7" fill-rule="evenodd"></path><path d="M-176.32 -135.7 C-170.49 -134.39, -164.66 -133.09, -161.68 -132.43 M-161.68 -132.43 C-164.7 -128.5, -167.72 -124.58, -169.41 -122.38 M-169.41 -122.38 C-171.94 -127.26, -174.48 -132.14, -176.32 -135.7 M-176.32 -135.7 C-176.32 -135.7, -176.32 -135.7, -176.32 -135.7" stroke="#364fc7" stroke-width="1.5" fill="none"></path></g></g><mask></mask></svg>