<svg version="1.1" xmlns="http://www.w3.org/2000/svg" viewBox="0 0 680.771484375 413.140625" width="680.771484375" height="413.140625">
  <!-- svg-source:excalidraw -->
  
  <defs>
    <style class="style-fonts">
      @font-face {
        font-family: "Virgil";
        src: url("https://excalidraw.com/Virgil.woff2");
      }
      @font-face {
        font-family: "Cascadia";
        src: url("https://excalidraw.com/Cascadia.woff2");
      }
    </style>
  </defs>
  <g stroke-linecap="round" transform="translate(10 104.79296875) rotate(0 138.076171875 149)"><path d="M0 0 C67.7 0, 135.39 0, 276.15 0 M0 0 C73.06 0, 146.12 0, 276.15 0 M276.15 0 C276.15 81.75, 276.15 163.51, 276.15 298 M276.15 0 C276.15 104.8, 276.15 209.6, 276.15 298 M276.15 298 C200.04 298, 123.92 298, 0 298 M276.15 298 C195.45 298, 114.74 298, 0 298 M0 298 C0 221.69, 0 145.38, 0 0 M0 298 C0 221.54, 0 145.08, 0 0" stroke="#087f5b" stroke-width="1" fill="none"></path></g><g transform="translate(42.076171875 104.79296875) rotate(0 106 144)"><text x="106" y="20" font-family="Cascadia, Segoe UI Emoji" font-size="20px" fill="#087f5b" text-anchor="middle" style="white-space: pre;" direction="ltr"></text><text x="106" y="44" font-family="Cascadia, Segoe UI Emoji" font-size="20px" fill="#087f5b" text-anchor="middle" style="white-space: pre;" direction="ltr">Subject</text><text x="106" y="68" font-family="Cascadia, Segoe UI Emoji" font-size="20px" fill="#087f5b" text-anchor="middle" style="white-space: pre;" direction="ltr"></text><text x="106" y="92" font-family="Cascadia, Segoe UI Emoji" font-size="20px" fill="#087f5b" text-anchor="middle" style="white-space: pre;" direction="ltr"></text><text x="106" y="116" font-family="Cascadia, Segoe UI Emoji" font-size="20px" fill="#087f5b" text-anchor="middle" style="white-space: pre;" direction="ltr"></text><text x="106" y="140" font-family="Cascadia, Segoe UI Emoji" font-size="20px" fill="#087f5b" text-anchor="middle" style="white-space: pre;" direction="ltr">registerObserver()</text><text x="106" y="164" font-family="Cascadia, Segoe UI Emoji" font-size="20px" fill="#087f5b" text-anchor="middle" style="white-space: pre;" direction="ltr">removeObserver()</text><text x="106" y="188" font-family="Cascadia, Segoe UI Emoji" font-size="20px" fill="#087f5b" text-anchor="middle" style="white-space: pre;" direction="ltr">notifyObservers()</text><text x="106" y="212" font-family="Cascadia, Segoe UI Emoji" font-size="20px" fill="#087f5b" text-anchor="middle" style="white-space: pre;" direction="ltr"></text><text x="106" y="236" font-family="Cascadia, Segoe UI Emoji" font-size="20px" fill="#087f5b" text-anchor="middle" style="white-space: pre;" direction="ltr">getState()</text><text x="106" y="260" font-family="Cascadia, Segoe UI Emoji" font-size="20px" fill="#087f5b" text-anchor="middle" style="white-space: pre;" direction="ltr">setState()</text><text x="106" y="284" font-family="Cascadia, Segoe UI Emoji" font-size="20px" fill="#087f5b" text-anchor="middle" style="white-space: pre;" direction="ltr"></text></g><g stroke-linecap="round"><g transform="translate(11.7734375 181.73046875) rotate(0 136.861328125 0.201171875)"><path d="M0 0 C77.67 0.11, 155.33 0.23, 273.72 0.4" stroke="#087f5b" stroke-width="1.5" fill="none" stroke-dasharray="8 9"></path></g></g><mask></mask><g stroke-linecap="round" transform="translate(394.619140625 105.140625) rotate(0 138.076171875 149)"><path d="M0 0 C86.65 0, 173.31 0, 276.15 0 M0 0 C82.52 0, 165.04 0, 276.15 0 M276.15 0 C276.15 92.86, 276.15 185.72, 276.15 298 M276.15 0 C276.15 62.65, 276.15 125.3, 276.15 298 M276.15 298 C188.25 298, 100.34 298, 0 298 M276.15 298 C171.08 298, 66 298, 0 298 M0 298 C0 214.07, 0 130.13, 0 0 M0 298 C0 182.01, 0 66.02, 0 0" stroke="#087f5b" stroke-width="1" fill="none"></path></g><g transform="translate(479.6953125 105.140625) rotate(0 53 72)"><text x="53" y="20" font-family="Cascadia, Segoe UI Emoji" font-size="20px" fill="#087f5b" text-anchor="middle" style="white-space: pre;" direction="ltr"></text><text x="53" y="44" font-family="Cascadia, Segoe UI Emoji" font-size="20px" fill="#087f5b" text-anchor="middle" style="white-space: pre;" direction="ltr">Observers</text><text x="53" y="68" font-family="Cascadia, Segoe UI Emoji" font-size="20px" fill="#087f5b" text-anchor="middle" style="white-space: pre;" direction="ltr"></text><text x="53" y="92" font-family="Cascadia, Segoe UI Emoji" font-size="20px" fill="#087f5b" text-anchor="middle" style="white-space: pre;" direction="ltr"></text><text x="53" y="116" font-family="Cascadia, Segoe UI Emoji" font-size="20px" fill="#087f5b" text-anchor="middle" style="white-space: pre;" direction="ltr"></text><text x="53" y="140" font-family="Cascadia, Segoe UI Emoji" font-size="20px" fill="#087f5b" text-anchor="middle" style="white-space: pre;" direction="ltr">update()</text></g><g stroke-linecap="round"><g transform="translate(396.392578125 182.078125) rotate(0 136.861328125 0.201171875)"><path d="M0 0 C62.62 0.09, 125.24 0.18, 273.72 0.4" stroke="#087f5b" stroke-width="1.5" fill="none" stroke-dasharray="8 9"></path></g></g><mask></mask><g stroke-linecap="round"><g transform="translate(289.80859375 143.78922514123076) rotate(0 51.9052734375 0.7071977887392791)"><path d="M0 0 C36.39 0.5, 72.79 0.99, 103.81 1.41 M0 0 C40.34 0.55, 80.69 1.1, 103.81 1.41" stroke="#c92a2a" stroke-width="4" fill="none"></path></g><g transform="translate(289.80859375 143.78922514123076) rotate(0 51.9052734375 0.7071977887392791)"><path d="M75.48 11.29 C85.41 7.83, 95.34 4.37, 103.81 1.41 M75.48 11.29 C86.49 7.45, 97.5 3.61, 103.81 1.41" stroke="#c92a2a" stroke-width="4" fill="none"></path></g><g transform="translate(289.80859375 143.78922514123076) rotate(0 51.9052734375 0.7071977887392791)"><path d="M75.76 -9.23 C85.6 -5.5, 95.43 -1.77, 103.81 1.41 M75.76 -9.23 C86.66 -5.09, 97.56 -0.96, 103.81 1.41" stroke="#c92a2a" stroke-width="4" fill="none"></path></g></g><mask></mask><g transform="translate(225.59765625 10) rotate(0 112 25)"><text x="112" y="18" font-family="Virgil, Segoe UI Emoji" font-size="20px" fill="#495057" text-anchor="middle" style="white-space: pre;" direction="ltr">Each object can have </text><text x="112" y="43" font-family="Virgil, Segoe UI Emoji" font-size="20px" fill="#495057" text-anchor="middle" style="white-space: pre;" direction="ltr">many observers</text></g></svg>