<svg version="1.1" xmlns="http://www.w3.org/2000/svg" viewBox="0 0 818.6817864893187 392.56146348244715" width="818.6817864893187" height="392.56146348244715">
  <!-- svg-source:excalidraw -->
  
  <defs>
    <style class="style-fonts">
      @font-face {
        font-family: "Virgil";
        src: url("https://excalidraw.com/Virgil.woff2");
      }
      @font-face {
        font-family: "Cascadia";
        src: url("https://excalidraw.com/Cascadia.woff2");
      }
    </style>
  </defs>
  <g stroke-linecap="round" transform="translate(134.31963092229034 210.30846403066198) rotate(0 138.076171875 55.59582987833073)"><path d="M0 0 C96.34 0, 192.68 0, 276.15 0 M0 0 C75.48 0, 150.96 0, 276.15 0 M276.15 0 C276.15 44.39, 276.15 88.77, 276.15 111.19 M276.15 0 C276.15 38.86, 276.15 77.73, 276.15 111.19 M276.15 111.19 C197.35 111.19, 118.55 111.19, 0 111.19 M276.15 111.19 C204.51 111.19, 132.87 111.19, 0 111.19 M0 111.19 C0 85.4, 0 59.62, 0 0 M0 111.19 C0 68.1, 0 25, 0 0" stroke="#364fc7" stroke-width="1" fill="none"></path></g><g stroke-linecap="round"><g transform="translate(134.13603717229034 261.437370280662) rotate(0 136.861328125 0.201171875)"><path d="M0 0 C83.08 0.12, 166.16 0.24, 273.72 0.4 M0 0 C93.53 0.14, 187.07 0.27, 273.72 0.4" stroke="#364fc7" stroke-width="1" fill="none"></path></g></g><mask></mask><g transform="translate(189.43925752067707 224.72489760090457) rotate(0 88.5 12)"><text x="0" y="20" font-family="Cascadia, Segoe UI Emoji" font-size="20px" fill="#364fc7" text-anchor="start" style="white-space: pre;" direction="ltr">ConcreteCreator</text></g><g transform="translate(147.72002154729034 272.796745280662) rotate(0 88.5 12)"><text x="0" y="20" font-family="Cascadia, Segoe UI Emoji" font-size="20px" fill="#364fc7" text-anchor="start" style="white-space: pre;" direction="ltr">factoryMethod()</text></g><g stroke-linecap="round" transform="translate(131.2878833093032 12.505486042568464) rotate(0 138.076171875 60.955922644026714)"><path d="M0 0 C67.41 0, 134.83 0, 276.15 0 M0 0 C79.51 0, 159.03 0, 276.15 0 M276.15 0 C276.15 47.8, 276.15 95.6, 276.15 121.91 M276.15 0 C276.15 27.71, 276.15 55.41, 276.15 121.91 M276.15 121.91 C205.09 121.91, 134.03 121.91, 0 121.91 M276.15 121.91 C181.31 121.91, 86.48 121.91, 0 121.91 M0 121.91 C0 95.47, 0 69.03, 0 0 M0 121.91 C0 80.43, 0 38.95, 0 0" stroke="#364fc7" stroke-width="1" fill="none"></path></g><g stroke-linecap="round"><g transform="translate(131.1042895593032 63.634392292568464) rotate(0 136.861328125 0.201171875)"><path d="M0 0 C64.56 0.09, 129.12 0.19, 273.72 0.4 M0 0 C55.27 0.08, 110.54 0.16, 273.72 0.4" stroke="#364fc7" stroke-width="1" fill="none"></path></g></g><mask></mask><g transform="translate(220.33048846872543 24.451021856893476) rotate(0 41.5 12)"><text x="0" y="20" font-family="Cascadia, Segoe UI Emoji" font-size="20px" fill="#364fc7" text-anchor="start" style="white-space: pre;" direction="ltr">Creator</text></g><g transform="translate(144.6882739343032 74.99376729256846) rotate(0 70.5 11.5)"><text x="0" y="19" font-family="Helvetica, Segoe UI Emoji" font-size="20px" fill="#364fc7" text-anchor="start" style="white-space: pre;" direction="ltr">factoryMethod()</text></g><g stroke-linecap="round" transform="translate(529.9642184480381 10) rotate(0 138.076171875 55.796107757958566)"><path d="M0 0 C92.79 0, 185.57 0, 276.15 0 M0 0 C55.62 0, 111.24 0, 276.15 0 M276.15 0 C276.15 34.6, 276.15 69.21, 276.15 111.59 M276.15 0 C276.15 32.85, 276.15 65.7, 276.15 111.59 M276.15 111.59 C192.12 111.59, 108.08 111.59, 0 111.59 M276.15 111.59 C216.22 111.59, 156.29 111.59, 0 111.59 M0 111.59 C0 79.7, 0 47.81, 0 0 M0 111.59 C0 71.97, 0 32.35, 0 0" stroke="#364fc7" stroke-width="1" fill="none"></path></g><g stroke-linecap="round"><g transform="translate(529.7806246980381 61.12890625) rotate(0 136.861328125 0.201171875)"><path d="M0 0 C61.14 0.09, 122.28 0.18, 273.72 0.4 M0 0 C104.2 0.15, 208.41 0.31, 273.72 0.4" stroke="#364fc7" stroke-width="1" fill="none"></path></g></g><mask></mask><g transform="translate(635.6635390738147 24.251611647806385) rotate(0 41.5 12)"><text x="0" y="20" font-family="Cascadia, Segoe UI Emoji" font-size="20px" fill="#364fc7" text-anchor="start" style="white-space: pre;" direction="ltr">Product</text></g><g stroke-linecap="round"><g transform="translate(263.58395880110857 205.83908825081244) rotate(0 0.5472607963374685 -34.072822605492206)"><path d="M0 0 C0.37 -23.29, 0.75 -46.57, 1.09 -68.15" stroke="#364fc7" stroke-width="1.5" fill="none" stroke-dasharray="8 9"></path></g><g transform="translate(263.58395880110857 205.83908825081244) rotate(0 0.5472607963374685 -34.072822605492206)"><path d="M1.09 -68.15 L7.21 -54.45 L-5.46 -54.65 L1.09 -68.15" stroke="none" stroke-width="0" fill="#364fc7" fill-rule="evenodd"></path><path d="M1.09 -68.15 C3.19 -63.47, 5.28 -58.79, 7.21 -54.45 M7.21 -54.45 C2.89 -54.52, -1.44 -54.59, -5.46 -54.65 M-5.46 -54.65 C-3.91 -57.85, -2.36 -61.04, 1.09 -68.15 M1.09 -68.15 C1.09 -68.15, 1.09 -68.15, 1.09 -68.15" stroke="#364fc7" stroke-width="1.5" fill="none"></path></g></g><mask></mask><g stroke-linecap="round"><g transform="translate(417.62974029784164 237.01320444019234) rotate(0 56.24262225715097 0.01720010317899323)"><path d="M0 0 C22.76 0.01, 45.53 0.01, 112.49 0.03 M0 0 C41.12 0.01, 82.24 0.03, 112.49 0.03" stroke="#364fc7" stroke-width="1" fill="none"></path></g><g transform="translate(417.62974029784164 237.01320444019234) rotate(0 56.24262225715097 0.01720010317899323)"><path d="M112.49 0.03 L98.89 6.37 L98.89 -6.31 L112.49 0.03" stroke="none" stroke-width="0" fill="#364fc7" fill-rule="evenodd"></path><path d="M112.49 0.03 C109.73 1.32, 106.98 2.6, 98.89 6.37 M112.49 0.03 C107.51 2.35, 102.54 4.67, 98.89 6.37 M98.89 6.37 C98.89 2.29, 98.89 -1.79, 98.89 -6.31 M98.89 6.37 C98.89 2.48, 98.89 -1.41, 98.89 -6.31 M98.89 -6.31 C103.05 -4.37, 107.21 -2.43, 112.49 0.03 M98.89 -6.31 C104.25 -3.81, 109.62 -1.3, 112.49 0.03 M112.49 0.03 C112.49 0.03, 112.49 0.03, 112.49 0.03 M112.49 0.03 C112.49 0.03, 112.49 0.03, 112.49 0.03" stroke="#364fc7" stroke-width="1" fill="none"></path></g></g><mask></mask><g stroke-linecap="round" transform="translate(532.5294427393187 208.59049500704464) rotate(0 138.076171875 55.796107757958566)"><path d="M0 0 C103.86 0, 207.72 0, 276.15 0 M0 0 C67.61 0, 135.21 0, 276.15 0 M276.15 0 C276.15 36.62, 276.15 73.23, 276.15 111.59 M276.15 0 C276.15 26.7, 276.15 53.41, 276.15 111.59 M276.15 111.59 C173.73 111.59, 71.3 111.59, 0 111.59 M276.15 111.59 C215.58 111.59, 155 111.59, 0 111.59 M0 111.59 C0 83.28, 0 54.98, 0 0 M0 111.59 C0 88.63, 0 65.67, 0 0" stroke="#364fc7" stroke-width="1" fill="none"></path></g><g stroke-linecap="round"><g transform="translate(532.3458489893187 259.71940125704464) rotate(0 136.861328125 0.201171875)"><path d="M0 0 C101.47 0.15, 202.94 0.3, 273.72 0.4 M0 0 C60.45 0.09, 120.91 0.18, 273.72 0.4" stroke="#364fc7" stroke-width="1" fill="none"></path></g></g><mask></mask><g transform="translate(586.330322867459 221.32773225440042) rotate(0 88.5 12)"><text x="0" y="20" font-family="Cascadia, Segoe UI Emoji" font-size="20px" fill="#364fc7" text-anchor="start" style="white-space: pre;" direction="ltr">ConcreteProduct</text></g><g stroke-linecap="round"><g transform="translate(663.7504275525957 203.68458418101068) rotate(0 -0.14220370673069738 -39.78087185686957)"><path d="M0 0 C-0.08 -21.61, -0.15 -43.23, -0.28 -79.56" stroke="#364fc7" stroke-width="1.5" fill="none" stroke-dasharray="8 9"></path></g><g transform="translate(663.7504275525957 203.68458418101068) rotate(0 -0.14220370673069738 -39.78087185686957)"><path d="M-0.28 -79.56 L6.1 -65.99 L-6.58 -65.94 L-0.28 -79.56" stroke="none" stroke-width="0" fill="#364fc7" fill-rule="evenodd"></path><path d="M-0.28 -79.56 C1.45 -75.87, 3.19 -72.19, 6.1 -65.99 M6.1 -65.99 C2.84 -65.98, -0.43 -65.97, -6.58 -65.94 M-6.58 -65.94 C-4.61 -70.21, -2.64 -74.47, -0.28 -79.56 M-0.28 -79.56 C-0.28 -79.56, -0.28 -79.56, -0.28 -79.56" stroke="#364fc7" stroke-width="1.5" fill="none"></path></g></g><mask></mask><g transform="translate(374.5692942946257 363.56146348244715) rotate(0 84 9.5)"><text x="0" y="15" font-family="Helvetica, Segoe UI Emoji" font-size="16px" fill="#364fc7" text-anchor="start" style="white-space: pre;" direction="ltr">Factory Method Pattern</text></g><g transform="translate(146.8068850808845 100.438615501389) rotate(0 77 12)"><text x="0" y="20" font-family="Cascadia, Segoe UI Emoji" font-size="20.0848718747229px" fill="#364fc7" text-anchor="start" style="white-space: pre;" direction="ltr">anOperation()</text></g><g stroke-linecap="round"><g transform="translate(141.85879864790832 80.70645520456947) rotate(0 -24.570526257624806 -0.5816810420707839)"><path d="M0.32 -1.96 C-13.01 -0.91, -23.9 -0.75, -48.75 0.24 M-0.74 0.45 C-19.54 1.15, -38.27 0.73, -49.46 -0.18" stroke="#364fc7" stroke-width="1" fill="none"></path></g><g transform="translate(141.85879864790832 80.70645520456947) rotate(0 -24.570526257624806 -0.5816810420707839)"><path d="M-49.47 -9.24 C-47.97 -9.4, -46.18 -7.97, -44.93 -6.61 C-43.68 -5.26, -42.54 -2.74, -41.99 -1.11 C-41.44 0.52, -40.95 1.77, -41.61 3.16 C-42.27 4.54, -44.29 6.57, -45.97 7.21 C-47.66 7.85, -49.91 7.57, -51.7 7 C-53.49 6.43, -55.92 5.17, -56.71 3.79 C-57.51 2.41, -56.77 0.42, -56.47 -1.29 C-56.16 -2.99, -56.27 -5.35, -54.89 -6.45 C-53.51 -7.55, -49.68 -7.49, -48.19 -7.88 C-46.69 -8.28, -46.01 -9.01, -45.93 -8.83 M-49.46 -9.75 C-48.04 -9.71, -44.37 -6.84, -42.91 -5.06 C-41.44 -3.27, -40.48 -0.82, -40.68 0.94 C-40.88 2.7, -42.7 4.26, -44.11 5.51 C-45.52 6.75, -47.58 8.41, -49.14 8.43 C-50.7 8.45, -52.2 6.75, -53.45 5.64 C-54.7 4.52, -56.2 3.29, -56.66 1.72 C-57.11 0.15, -56.76 -2.08, -56.19 -3.78 C-55.62 -5.47, -54.7 -7.45, -53.24 -8.45 C-51.77 -9.44, -48.14 -9.69, -47.4 -9.75 C-46.66 -9.8, -48.53 -8.95, -48.79 -8.79" stroke="none" stroke-width="0" fill="#364fc7"></path></g></g><mask></mask><g transform="translate(10 66.35832553446573) rotate(0 30.5 18.5)"><text x="0" y="15.5" font-family="Helvetica, Segoe UI Emoji" font-size="16px" fill="#364fc7" text-anchor="start" style="white-space: pre;" direction="ltr">abstract </text><text x="0" y="34" font-family="Helvetica, Segoe UI Emoji" font-size="16px" fill="#364fc7" text-anchor="start" style="white-space: pre;" direction="ltr">method</text></g></svg>