<svg version="1.1" xmlns="http://www.w3.org/2000/svg" viewBox="0 0 1694.6057506406205 876.7170517194178" width="1694.6057506406205" height="876.7170517194178">
  <!-- svg-source:excalidraw -->
  
  <defs>
    <style class="style-fonts">
      @font-face {
        font-family: "Virgil";
        src: url("https://excalidraw.com/Virgil.woff2");
      }
      @font-face {
        font-family: "Cascadia";
        src: url("https://excalidraw.com/Cascadia.woff2");
      }
    </style>
  </defs>
  <g stroke-linecap="round" transform="translate(1269.5631518879536 36.01611471530475) rotate(0 138.076171875 67.93470417642794)"><path d="M0 0 C62.94 0, 125.87 0, 276.15 0 M0 0 C65.17 0, 130.33 0, 276.15 0 M276.15 0 C276.15 44.23, 276.15 88.47, 276.15 135.87 M276.15 0 C276.15 45.85, 276.15 91.71, 276.15 135.87 M276.15 135.87 C218.68 135.87, 161.22 135.87, 0 135.87 M276.15 135.87 C193.45 135.87, 110.75 135.87, 0 135.87 M0 135.87 C0 82.41, 0 28.96, 0 0 M0 135.87 C0 106.08, 0 76.3, 0 0" stroke="#364fc7" stroke-width="1" fill="none"></path></g><g stroke-linecap="round"><g transform="translate(1269.3795581379536 87.14502096530475) rotate(0 136.861328125 0.201171875)"><path d="M0 0 C73.7 0.11, 147.41 0.22, 273.72 0.4 M0 0 C97.41 0.14, 194.83 0.29, 273.72 0.4" stroke="#364fc7" stroke-width="1" fill="none"></path></g></g><mask></mask><g transform="translate(1351.9674487629536 49.15673971530475) rotate(0 59 12)"><text x="0" y="20" font-family="Cascadia, Segoe UI Emoji" font-size="20px" fill="#364fc7" text-anchor="start" style="white-space: pre;" direction="ltr">PizzaStore</text></g><g transform="translate(1280.5424767995419 140.35188602286462) rotate(0 71 12)"><text x="0" y="20" font-family="Cascadia, Segoe UI Emoji" font-size="20px" fill="#364fc7" text-anchor="start" style="white-space: pre;" direction="ltr">orderPizza()</text></g><g stroke-linecap="round" transform="translate(1408.4534068906205 364.80876184797614) rotate(0 138.076171875 55.59582987833073)"><path d="M0 0 C68.01 0, 136.02 0, 276.15 0 M0 0 C66.53 0, 133.06 0, 276.15 0 M276.15 0 C276.15 28.91, 276.15 57.81, 276.15 111.19 M276.15 0 C276.15 25.5, 276.15 51, 276.15 111.19 M276.15 111.19 C208.28 111.19, 140.41 111.19, 0 111.19 M276.15 111.19 C196.95 111.19, 117.76 111.19, 0 111.19 M0 111.19 C0 77.45, 0 43.71, 0 0 M0 111.19 C0 77.07, 0 42.96, 0 0" stroke="#364fc7" stroke-width="1" fill="none"></path></g><g stroke-linecap="round"><g transform="translate(1408.2698131406205 415.9376680979759) rotate(0 136.861328125 0.201171875)"><path d="M0 0 C78.89 0.12, 157.78 0.23, 273.72 0.4 M0 0 C104.63 0.15, 209.25 0.31, 273.72 0.4" stroke="#364fc7" stroke-width="1" fill="none"></path></g></g><mask></mask><g transform="translate(1474.3445698890673 378.4190722600566) rotate(0 71 12)"><text x="0" y="20" font-family="Cascadia, Segoe UI Emoji" font-size="20px" fill="#364fc7" text-anchor="start" style="white-space: pre;" direction="ltr">NYPizzaStore</text></g><g transform="translate(1421.8537975156214 427.2970430979759) rotate(0 76.5 12)"><text x="0" y="20" font-family="Cascadia, Segoe UI Emoji" font-size="20px" fill="#364fc7" text-anchor="start" style="white-space: pre;" direction="ltr">createPizza()</text></g><g stroke-linecap="round" transform="translate(331.0005059050354 10) rotate(0 138.076171875 87.75874279212798)"><path d="M0 0 C55.23 0, 110.47 0, 276.15 0 M0 0 C87.72 0, 175.44 0, 276.15 0 M276.15 0 C276.15 61, 276.15 122.01, 276.15 175.52 M276.15 0 C276.15 57.58, 276.15 115.16, 276.15 175.52 M276.15 175.52 C182.47 175.52, 88.78 175.52, 0 175.52 M276.15 175.52 C193.29 175.52, 110.43 175.52, 0 175.52 M0 175.52 C0 137.05, 0 98.58, 0 0 M0 175.52 C0 112.16, 0 48.81, 0 0" stroke="#364fc7" stroke-width="1" fill="none"></path></g><g stroke-linecap="round"><g transform="translate(330.8169121550354 61.12890625) rotate(0 136.861328125 0.201171875)"><path d="M0 0 C73.93 0.11, 147.86 0.22, 273.72 0.4 M0 0 C68.14 0.1, 136.28 0.2, 273.72 0.4" stroke="#364fc7" stroke-width="1" fill="none"></path></g></g><mask></mask><g transform="translate(439.8426720331181 24.251611647806158) rotate(0 30 12)"><text x="0" y="20" font-family="Cascadia, Segoe UI Emoji" font-size="20px" fill="#364fc7" text-anchor="start" style="white-space: pre;" direction="ltr">Pizza</text></g><g transform="translate(344.4008965300354 72.48828125) rotate(0 52.5 48)"><text x="0" y="20" font-family="Cascadia, Segoe UI Emoji" font-size="20px" fill="#364fc7" text-anchor="start" style="white-space: pre;" direction="ltr">prepare()</text><text x="0" y="44" font-family="Cascadia, Segoe UI Emoji" font-size="20px" fill="#364fc7" text-anchor="start" style="white-space: pre;" direction="ltr">back()</text><text x="0" y="68" font-family="Cascadia, Segoe UI Emoji" font-size="20px" fill="#364fc7" text-anchor="start" style="white-space: pre;" direction="ltr">cut()</text><text x="0" y="92" font-family="Cascadia, Segoe UI Emoji" font-size="20px" fill="#364fc7" text-anchor="start" style="white-space: pre;" direction="ltr">box()</text></g><g stroke-linecap="round" transform="translate(10.18359375 383.73323711447983) rotate(0 138.076171875 57.40833384033448)"><path d="M0 0 L276.15 0 L276.15 114.82 L0 114.82" stroke="none" stroke-width="0" fill="#ced4da"></path><path d="M0 0 C98.28 0, 196.56 0, 276.15 0 M0 0 C78.9 0, 157.8 0, 276.15 0 M276.15 0 C276.15 37.46, 276.15 74.91, 276.15 114.82 M276.15 0 C276.15 45.31, 276.15 90.62, 276.15 114.82 M276.15 114.82 C200.9 114.82, 125.66 114.82, 0 114.82 M276.15 114.82 C202.52 114.82, 128.88 114.82, 0 114.82 M0 114.82 C0 75.14, 0 35.46, 0 0 M0 114.82 C0 80.33, 0 45.84, 0 0" stroke="#364fc7" stroke-width="1" fill="none"></path></g><g stroke-linecap="round"><g transform="translate(10 434.86214336447995) rotate(0 136.861328125 0.201171875)"><path d="M0 0 C106.31 0.16, 212.62 0.31, 273.72 0.4 M0 0 C89.64 0.13, 179.28 0.26, 273.72 0.4" stroke="#364fc7" stroke-width="1" fill="none"></path></g></g><mask></mask><g transform="translate(29.96360167286366 395.1552766324927) rotate(0 123.5 12)"><text x="0" y="20" font-family="Cascadia, Segoe UI Emoji" font-size="20px" fill="#364fc7" text-anchor="start" style="white-space: pre;" direction="ltr">NYStylePepperoniPizza</text></g><g stroke-linecap="round" transform="translate(49.13929459719384 451.86194239852045) rotate(0 138.076171875 57.408333840334535)"><path d="M0 0 L276.15 0 L276.15 114.82 L0 114.82" stroke="none" stroke-width="0" fill="#ced4da"></path><path d="M0 0 C66.53 0, 133.06 0, 276.15 0 M0 0 C71.79 0, 143.58 0, 276.15 0 M276.15 0 C276.15 26.33, 276.15 52.66, 276.15 114.82 M276.15 0 C276.15 28.22, 276.15 56.44, 276.15 114.82 M276.15 114.82 C196.95 114.82, 117.76 114.82, 0 114.82 M276.15 114.82 C192.35 114.82, 108.55 114.82, 0 114.82 M0 114.82 C0 79.59, 0 44.36, 0 0 M0 114.82 C0 81.8, 0 48.79, 0 0" stroke="#364fc7" stroke-width="1" fill="none"></path></g><g stroke-linecap="round"><g transform="translate(48.95570084719384 502.99084864852045) rotate(0 136.861328125 0.201171875)"><path d="M0 0 C104.63 0.15, 209.25 0.31, 273.72 0.4 M0 0 C65.18 0.1, 130.35 0.19, 273.72 0.4" stroke="#364fc7" stroke-width="1" fill="none"></path></g></g><mask></mask><g transform="translate(99.14004041807948 467.82199557748424) rotate(0 94.5 12)"><text x="0" y="20" font-family="Cascadia, Segoe UI Emoji" font-size="20px" fill="#364fc7" text-anchor="start" style="white-space: pre;" direction="ltr">NYStyleClamPizza</text></g><g stroke-linecap="round" transform="translate(100.86786975523955 520.7972356637209) rotate(0 138.076171875 57.408333840334535)"><path d="M0 0 L276.15 0 L276.15 114.82 L0 114.82" stroke="none" stroke-width="0" fill="#ced4da"></path><path d="M0 0 C98.88 0, 197.76 0, 276.15 0 M0 0 C59.37 0, 118.74 0, 276.15 0 M276.15 0 C276.15 28, 276.15 55.99, 276.15 114.82 M276.15 0 C276.15 32.63, 276.15 65.26, 276.15 114.82 M276.15 114.82 C183.49 114.82, 90.82 114.82, 0 114.82 M276.15 114.82 C220.14 114.82, 164.14 114.82, 0 114.82 M0 114.82 C0 80.47, 0 46.13, 0 0 M0 114.82 C0 86.49, 0 58.16, 0 0" stroke="#364fc7" stroke-width="1" fill="none"></path></g><g stroke-linecap="round"><g transform="translate(100.68427600523955 571.9261419137209) rotate(0 136.861328125 0.201171875)"><path d="M0 0 C86.95 0.13, 173.9 0.26, 273.72 0.4 M0 0 C95.14 0.14, 190.27 0.28, 273.72 0.4" stroke="#364fc7" stroke-width="1" fill="none"></path></g></g><mask></mask><g transform="translate(136.92193099359702 535.3367476691523) rotate(0 106 12)"><text x="0" y="20" font-family="Cascadia, Segoe UI Emoji" font-size="20px" fill="#364fc7" text-anchor="start" style="white-space: pre;" direction="ltr">NYStyleCheesePizza</text></g><g stroke-linecap="round" transform="translate(158.25929710094988 591.6796435560631) rotate(0 138.076171875 57.408333840334535)"><path d="M0 0 L276.15 0 L276.15 114.82 L0 114.82" stroke="none" stroke-width="0" fill="#ced4da"></path><path d="M0 0 C95.32 0, 190.63 0, 276.15 0 M0 0 C59.02 0, 118.03 0, 276.15 0 M276.15 0 C276.15 36.88, 276.15 73.76, 276.15 114.82 M276.15 0 C276.15 25.28, 276.15 50.57, 276.15 114.82 M276.15 114.82 C187.96 114.82, 99.76 114.82, 0 114.82 M276.15 114.82 C198 114.82, 119.85 114.82, 0 114.82 M0 114.82 C0 69.12, 0 23.42, 0 0 M0 114.82 C0 77.53, 0 40.25, 0 0" stroke="#364fc7" stroke-width="1" fill="none"></path></g><g stroke-linecap="round"><g transform="translate(158.07570335094988 642.8085498060631) rotate(0 136.861328125 0.201171875)"><path d="M0 0 C89.12 0.13, 178.23 0.26, 273.72 0.4 M0 0 C92.38 0.14, 184.76 0.27, 273.72 0.4" stroke="#364fc7" stroke-width="1" fill="none"></path></g></g><mask></mask><g transform="translate(195.0867350392491 604.4890801244677) rotate(0 106 12)"><text x="0" y="20" font-family="Cascadia, Segoe UI Emoji" font-size="20px" fill="#364fc7" text-anchor="start" style="white-space: pre;" direction="ltr">NYStyleVeggiePizza</text></g><g stroke-linecap="round"><g transform="translate(1499.6629757930841 360.0062258777881) rotate(0 -17.583710811352375 -91.9299809001925)"><path d="M0 0 C-7.56 -39.53, -15.12 -79.06, -35.17 -183.86" stroke="#364fc7" stroke-width="1.5" fill="none" stroke-dasharray="8 9"></path></g><g transform="translate(1499.6629757930841 360.0062258777881) rotate(0 -17.583710811352375 -91.9299809001925)"><path d="M-35.17 -183.86 L-26.39 -171.7 L-38.84 -169.32 L-35.17 -183.86" stroke="none" stroke-width="0" fill="#364fc7" fill-rule="evenodd"></path><path d="M-35.17 -183.86 C-33.28 -181.25, -31.39 -178.63, -26.39 -171.7 M-26.39 -171.7 C-29.42 -171.12, -32.46 -170.54, -38.84 -169.32 M-38.84 -169.32 C-37.8 -173.45, -36.75 -177.58, -35.17 -183.86 M-35.17 -183.86 C-35.17 -183.86, -35.17 -183.86, -35.17 -183.86" stroke="#364fc7" stroke-width="1.5" fill="none"></path></g></g><mask></mask><g stroke-linecap="round" transform="translate(1103.1762974517733 365.03920309058765) rotate(0 138.076171875 55.59582987833073)"><path d="M0 0 C79.31 0, 158.62 0, 276.15 0 M0 0 C97.91 0, 195.82 0, 276.15 0 M276.15 0 C276.15 28.52, 276.15 57.03, 276.15 111.19 M276.15 0 C276.15 42.65, 276.15 85.3, 276.15 111.19 M276.15 111.19 C198.59 111.19, 121.02 111.19, 0 111.19 M276.15 111.19 C171.14 111.19, 66.14 111.19, 0 111.19 M0 111.19 C0 76.92, 0 42.65, 0 0 M0 111.19 C0 69.89, 0 28.59, 0 0" stroke="#364fc7" stroke-width="1" fill="none"></path></g><g stroke-linecap="round"><g transform="translate(1102.9927037017733 416.1681093405872) rotate(0 136.861328125 0.201171875)"><path d="M0 0 C60.98 0.09, 121.96 0.18, 273.72 0.4 M0 0 C101.8 0.15, 203.6 0.3, 273.72 0.4" stroke="#364fc7" stroke-width="1" fill="none"></path></g></g><mask></mask><g transform="translate(1146.364931475723 377.8922600366212) rotate(0 100 12)"><text x="0" y="20" font-family="Cascadia, Segoe UI Emoji" font-size="20px" fill="#364fc7" text-anchor="start" style="white-space: pre;" direction="ltr">ChicagoPizzaStore</text></g><g transform="translate(1116.5766880767733 427.5274843405872) rotate(0 76.5 12)"><text x="0" y="20" font-family="Cascadia, Segoe UI Emoji" font-size="20px" fill="#364fc7" text-anchor="start" style="white-space: pre;" direction="ltr">createPizza()</text></g><g stroke-linecap="round"><g transform="translate(1240.365453706575 358.4431690996746) rotate(0 42.07685409608621 -87.48047758105639)"><path d="M0 0 C26.16 -54.38, 52.31 -108.76, 84.15 -174.96" stroke="#364fc7" stroke-width="1.5" fill="none" stroke-dasharray="8 9"></path></g><g transform="translate(1240.365453706575 358.4431690996746) rotate(0 42.07685409608621 -87.48047758105639)"><path d="M84.15 -174.96 L83.97 -159.96 L72.55 -165.46 L84.15 -174.96" stroke="none" stroke-width="0" fill="#364fc7" fill-rule="evenodd"></path><path d="M84.15 -174.96 C84.1 -170.3, 84.04 -165.64, 83.97 -159.96 M83.97 -159.96 C80.45 -161.66, 76.93 -163.35, 72.55 -165.46 M72.55 -165.46 C75.23 -167.65, 77.91 -169.85, 84.15 -174.96 M84.15 -174.96 C84.15 -174.96, 84.15 -174.96, 84.15 -174.96" stroke="#364fc7" stroke-width="1.5" fill="none"></path></g></g><mask></mask><g stroke-linecap="round" transform="translate(500.553757165977 382.295713655334) rotate(0 138.076171875 57.408333840334535)"><path d="M0 0 L276.15 0 L276.15 114.82 L0 114.82" stroke="none" stroke-width="0" fill="#ced4da"></path><path d="M0 0 C89.57 0, 179.13 0, 276.15 0 M0 0 C93.78 0, 187.55 0, 276.15 0 M276.15 0 C276.15 38.15, 276.15 76.29, 276.15 114.82 M276.15 0 C276.15 26.16, 276.15 52.32, 276.15 114.82 M276.15 114.82 C201.74 114.82, 127.33 114.82, 0 114.82 M276.15 114.82 C195.4 114.82, 114.64 114.82, 0 114.82 M0 114.82 C0 75.74, 0 36.67, 0 0 M0 114.82 C0 84.08, 0 53.35, 0 0" stroke="#364fc7" stroke-width="1" fill="none"></path></g><g stroke-linecap="round"><g transform="translate(500.370163415977 433.424619905334) rotate(0 136.861328125 0.201171875)"><path d="M0 0 C83.12 0.12, 166.25 0.24, 273.72 0.4 M0 0 C65.93 0.1, 131.86 0.19, 273.72 0.4" stroke="#364fc7" stroke-width="1" fill="none"></path></g></g><mask></mask><g transform="translate(515.8234086779348 396.216136871545) rotate(0 123.5 10)"><text x="0" y="16" font-family="Cascadia, Segoe UI Emoji" font-size="16.158458694142155px" fill="#364fc7" text-anchor="start" style="white-space: pre;" direction="ltr">ChicagoStylePepperoniPizza</text></g><g stroke-linecap="round" transform="translate(550.2823558622604 448.2079325168578) rotate(0 138.076171875 57.408333840334535)"><path d="M0 0 L276.15 0 L276.15 114.82 L0 114.82" stroke="none" stroke-width="0" fill="#ced4da"></path><path d="M0 0 C104.19 0, 208.38 0, 276.15 0 M0 0 C70.36 0, 140.72 0, 276.15 0 M276.15 0 C276.15 44.69, 276.15 89.38, 276.15 114.82 M276.15 0 C276.15 29.38, 276.15 58.77, 276.15 114.82 M276.15 114.82 C196.9 114.82, 117.64 114.82, 0 114.82 M276.15 114.82 C220.66 114.82, 165.17 114.82, 0 114.82 M0 114.82 C0 84.7, 0 54.59, 0 0 M0 114.82 C0 76.67, 0 38.53, 0 0" stroke="#364fc7" stroke-width="1" fill="none"></path></g><g stroke-linecap="round"><g transform="translate(550.0987621122604 499.3368387668578) rotate(0 136.861328125 0.201171875)"><path d="M0 0 C90.45 0.13, 180.9 0.27, 273.72 0.4 M0 0 C103.23 0.15, 206.45 0.3, 273.72 0.4" stroke="#364fc7" stroke-width="1" fill="none"></path></g></g><mask></mask><g transform="translate(571.9151006245465 460.5199033046475) rotate(0 123.5 12)"><text x="0" y="20" font-family="Cascadia, Segoe UI Emoji" font-size="20px" fill="#364fc7" text-anchor="start" style="white-space: pre;" direction="ltr">ChicagoStyleClamPizza</text></g><g stroke-linecap="round" transform="translate(602.0275132129937 516.8060545307534) rotate(0 138.076171875 57.408333840334535)"><path d="M0 0 L276.15 0 L276.15 114.82 L0 114.82" stroke="none" stroke-width="0" fill="#ced4da"></path><path d="M0 0 C72.99 0, 145.97 0, 276.15 0 M0 0 C62.59 0, 125.18 0, 276.15 0 M276.15 0 C276.15 43.85, 276.15 87.7, 276.15 114.82 M276.15 0 C276.15 24.88, 276.15 49.76, 276.15 114.82 M276.15 114.82 C167.69 114.82, 59.22 114.82, 0 114.82 M276.15 114.82 C169.26 114.82, 62.37 114.82, 0 114.82 M0 114.82 C0 70.26, 0 25.71, 0 0 M0 114.82 C0 88.7, 0 62.59, 0 0" stroke="#364fc7" stroke-width="1" fill="none"></path></g><g stroke-linecap="round"><g transform="translate(601.8439194629937 567.9349607807534) rotate(0 136.861328125 0.201171875)"><path d="M0 0 C77.43 0.11, 154.86 0.23, 273.72 0.4 M0 0 C78.97 0.12, 157.95 0.23, 273.72 0.4" stroke="#364fc7" stroke-width="1" fill="none"></path></g></g><mask></mask><g transform="translate(603.6067368959602 529.2396280649153) rotate(0 135.5 12)"><text x="0" y="20" font-family="Cascadia, Segoe UI Emoji" font-size="20px" fill="#364fc7" text-anchor="start" style="white-space: pre;" direction="ltr">ChicagoStyleCheesePizza</text></g><g stroke-linecap="round" transform="translate(655.920543026682 583.9580467762279) rotate(0 138.076171875 57.408333840334535)"><path d="M0 0 L276.15 0 L276.15 114.82 L0 114.82" stroke="none" stroke-width="0" fill="#ced4da"></path><path d="M0 0 C66.24 0, 132.48 0, 276.15 0 M0 0 C107.23 0, 214.46 0, 276.15 0 M276.15 0 C276.15 28.71, 276.15 57.43, 276.15 114.82 M276.15 0 C276.15 33.05, 276.15 66.11, 276.15 114.82 M276.15 114.82 C199 114.82, 121.85 114.82, 0 114.82 M276.15 114.82 C176.99 114.82, 77.83 114.82, 0 114.82 M0 114.82 C0 73.21, 0 31.61, 0 0 M0 114.82 C0 70.71, 0 26.6, 0 0" stroke="#364fc7" stroke-width="1" fill="none"></path></g><g stroke-linecap="round"><g transform="translate(655.736949276682 635.0869530262279) rotate(0 136.861328125 0.201171875)"><path d="M0 0 C59.51 0.09, 119.02 0.17, 273.72 0.4 M0 0 C108.05 0.16, 216.1 0.32, 273.72 0.4" stroke="#364fc7" stroke-width="1" fill="none"></path></g></g><mask></mask><g transform="translate(657.4334379389002 596.1152504322712) rotate(0 135.5 12)"><text x="0" y="20" font-family="Cascadia, Segoe UI Emoji" font-size="20px" fill="#364fc7" text-anchor="start" style="white-space: pre;" direction="ltr">ChicagoStyleVeggiePizza</text></g><g stroke-linecap="round"><g transform="translate(159.74478247140632 377.3620889129294) rotate(0 107.02590573771113 -92.47052333077681)"><path d="M0 0 C76.79 -66.34, 153.57 -132.69, 214.05 -184.94" stroke="#364fc7" stroke-width="1.5" fill="none" stroke-dasharray="8 9"></path></g><g transform="translate(159.74478247140632 377.3620889129294) rotate(0 107.02590573771113 -92.47052333077681)"><path d="M214.05 -184.94 L207.91 -171.26 L199.62 -180.85 L214.05 -184.94" stroke="none" stroke-width="0" fill="#364fc7" fill-rule="evenodd"></path><path d="M214.05 -184.94 C211.85 -180.03, 209.64 -175.12, 207.91 -171.26 M207.91 -171.26 C206.11 -173.34, 204.31 -175.43, 199.62 -180.85 M199.62 -180.85 C204.55 -182.25, 209.47 -183.64, 214.05 -184.94 M214.05 -184.94 C214.05 -184.94, 214.05 -184.94, 214.05 -184.94" stroke="#364fc7" stroke-width="1.5" fill="none"></path></g></g><mask></mask><g stroke-linecap="round"><g transform="translate(632.4325124845564 379.82562331184624) rotate(0 -51.306036636492536 -91.33553783984712)"><path d="M0 0 C-39.85 -70.94, -79.7 -141.88, -102.61 -182.67" stroke="#364fc7" stroke-width="1.5" fill="none" stroke-dasharray="8 9"></path></g><g transform="translate(632.4325124845564 379.82562331184624) rotate(0 -51.306036636492536 -91.33553783984712)"><path d="M-102.61 -182.67 L-90.43 -173.92 L-101.48 -167.71 L-102.61 -182.67" stroke="none" stroke-width="0" fill="#364fc7" fill-rule="evenodd"></path><path d="M-102.61 -182.67 C-97.88 -179.27, -93.15 -175.88, -90.43 -173.92 M-90.43 -173.92 C-94.01 -171.91, -97.59 -169.9, -101.48 -167.71 M-101.48 -167.71 C-101.93 -173.6, -102.37 -179.48, -102.61 -182.67 M-102.61 -182.67 C-102.61 -182.67, -102.61 -182.67, -102.61 -182.67" stroke="#364fc7" stroke-width="1.5" fill="none"></path></g></g><mask></mask><g stroke-linecap="round"><g transform="translate(1586.6180407660313 474.32562974268365) rotate(0 -640.9383311220413 196.19571098836707)"><path d="M0 0 C-67.48 56.7, -249.8 276.67, -404.91 340.18 C-560.01 403.69, -784.47 398.16, -930.64 381.07 C-1076.8 363.99, -1223.34 261.57, -1281.88 237.67 M0 0 C-67.48 56.7, -249.8 276.67, -404.91 340.18 C-560.01 403.69, -784.47 398.16, -930.64 381.07 C-1076.8 363.99, -1223.34 261.57, -1281.88 237.67" stroke="#364fc7" stroke-width="1" fill="none"></path></g><g transform="translate(1586.6180407660313 474.32562974268365) rotate(0 -640.9383311220413 196.19571098836707)"><path d="M-1281.88 237.67 L-1266.89 238.28 L-1272.71 249.54 L-1281.88 237.67" stroke="none" stroke-width="0" fill="#364fc7" fill-rule="evenodd"></path><path d="M-1281.88 237.67 C-1277.94 237.83, -1274 237.99, -1266.89 238.28 M-1281.88 237.67 C-1277.25 237.86, -1272.62 238.04, -1266.89 238.28 M-1266.89 238.28 C-1268.09 240.61, -1269.29 242.93, -1272.71 249.54 M-1266.89 238.28 C-1268.16 240.73, -1269.43 243.18, -1272.71 249.54 M-1272.71 249.54 C-1276 245.28, -1279.28 241.02, -1281.88 237.67 M-1272.71 249.54 C-1274.67 247, -1276.63 244.46, -1281.88 237.67 M-1281.88 237.67 C-1281.88 237.67, -1281.88 237.67, -1281.88 237.67 M-1281.88 237.67 C-1281.88 237.67, -1281.88 237.67, -1281.88 237.67" stroke="#364fc7" stroke-width="1" fill="none"></path></g></g><mask></mask><g stroke-linecap="round"><g transform="translate(2021.6400894871695 484.28668903702) rotate(0 -1027.5460633463672 163.71770494562452)"><path d="M-773.22 0 C-793.62 39.69, -840.54 183.57, -895.62 238.13 C-950.71 292.69, -1039.36 329.37, -1103.74 327.36 C-1168.11 325.35, -1252.19 242.96, -1281.88 226.08 M-773.22 0 C-793.62 39.69, -840.54 183.57, -895.62 238.13 C-950.71 292.69, -1039.36 329.37, -1103.74 327.36 C-1168.11 325.35, -1252.19 242.96, -1281.88 226.08" stroke="#364fc7" stroke-width="1" fill="none"></path></g><g transform="translate(2021.6400894871695 484.28668903702) rotate(0 -1027.5460633463672 163.71770494562452)"><path d="M-1281.88 226.08 L-1267.17 229.01 L-1274.67 239.23 L-1281.88 226.08" stroke="none" stroke-width="0" fill="#364fc7" fill-rule="evenodd"></path><path d="M-1281.88 226.08 C-1277.03 227.04, -1272.18 228.01, -1267.17 229.01 M-1281.88 226.08 C-1278.41 226.77, -1274.94 227.46, -1267.17 229.01 M-1267.17 229.01 C-1269.11 231.66, -1271.05 234.3, -1274.67 239.23 M-1267.17 229.01 C-1269.96 232.81, -1272.75 236.61, -1274.67 239.23 M-1274.67 239.23 C-1277.13 234.74, -1279.59 230.25, -1281.88 226.08 M-1274.67 239.23 C-1276.41 236.05, -1278.15 232.88, -1281.88 226.08 M-1281.88 226.08 C-1281.88 226.08, -1281.88 226.08, -1281.88 226.08 M-1281.88 226.08 C-1281.88 226.08, -1281.88 226.08, -1281.88 226.08" stroke="#364fc7" stroke-width="1" fill="none"></path></g></g><mask></mask><g transform="translate(1280.7749593525268 104.27245404539997) rotate(0 59.5 11.5)"><text x="0" y="19" font-family="Helvetica, Segoe UI Emoji" font-size="20px" fill="#364fc7" text-anchor="start" style="white-space: pre;" direction="ltr">createPizza()</text></g><g transform="translate(1273.7444925187483 119.53906292936529) rotate(0 -31.472855635579435 1.5183972697150239)" stroke="none"><path fill="#364fc7" d="M 0,1.66 Q 0,1.66 -1.70,1.70 -3.41,1.75 -5.06,1.79 -6.71,1.83 -8.62,1.81 -10.54,1.79 -12.72,1.73 -14.91,1.66 -17.31,1.61 -19.70,1.57 -21.92,1.53 -24.13,1.50 -26.27,1.47 -28.40,1.44 -30.65,1.45 -32.89,1.45 -34.96,1.52 -37.03,1.59 -38.94,1.74 -40.84,1.90 -42.58,2.12 -44.32,2.33 -45.74,2.61 -47.17,2.88 -48.35,3.12 -49.54,3.36 -50.67,3.54 -51.80,3.73 -53.73,4.08 -55.66,4.43 -56.99,4.75 -58.32,5.07 -60.53,5.38 -62.74,5.69 -63.17,5.65 -63.60,5.61 -64.00,5.44 -64.39,5.27 -64.71,4.98 -65.03,4.69 -65.24,4.31 -65.45,3.93 -65.53,3.51 -65.60,3.08 -65.54,2.66 -65.48,2.23 -65.29,1.85 -65.09,1.46 -64.79,1.16 -64.48,0.86 -64.09,0.67 -63.70,0.48 -63.28,0.42 -62.85,0.37 -62.43,0.45 -62.00,0.54 -61.63,0.75 -61.26,0.97 -60.97,1.29 -60.68,1.61 -60.52,2.01 -60.35,2.41 -60.32,2.84 -60.29,3.27 -60.39,3.69 -60.50,4.10 -60.74,4.46 -60.97,4.83 -61.31,5.09 -61.65,5.36 -62.05,5.51 -62.46,5.65 -62.89,5.66 -63.32,5.67 -63.73,5.54 -64.14,5.41 -64.49,5.16 -64.84,4.90 -65.09,4.55 -65.34,4.20 -65.46,3.78 -65.58,3.37 -65.57,2.94 -65.55,2.51 -65.40,2.11 -65.25,1.70 -64.98,1.37 -64.70,1.03 -64.34,0.81 -63.97,0.58 -63.56,0.48 -63.14,0.37 -63.14,0.37 -63.14,0.37 -61.71,0.24 -60.29,0.10 -59.05,0.00 -57.80,-0.10 -56.07,-0.21 -54.34,-0.32 -53.27,-0.36 -52.19,-0.40 -51.11,-0.42 -50.02,-0.44 -48.82,-0.50 -47.62,-0.56 -46.12,-0.68 -44.61,-0.79 -42.82,-0.90 -41.03,-1.02 -39.08,-1.11 -37.14,-1.21 -35.03,-1.29 -32.92,-1.37 -30.66,-1.41 -28.40,-1.44 -26.27,-1.47 -24.13,-1.50 -21.92,-1.53 -19.70,-1.57 -17.31,-1.61 -14.91,-1.66 -12.72,-1.73 -10.54,-1.79 -8.62,-1.81 -6.71,-1.83 -5.06,-1.79 -3.41,-1.75 -1.70,-1.70 0,-1.66 0.19,-1.64 0.39,-1.61 0.58,-1.54 0.77,-1.47 0.94,-1.36 1.10,-1.24 1.23,-1.09 1.37,-0.94 1.46,-0.76 1.55,-0.59 1.60,-0.39 1.65,-0.20 1.65,0.00 1.65,0.20 1.60,0.39 1.55,0.59 1.46,0.76 1.37,0.94 1.23,1.09 1.10,1.24 0.94,1.36 0.77,1.47 0.58,1.54 0.39,1.61 0.19,1.64 -0.00,1.66 -0.00,1.66 L 0,1.66 Z"></path></g><g transform="translate(1211.3546536163976 114.74580283111993) rotate(0 -0.46018942007867736 7.259374193468943)" stroke="none"><path fill="#364fc7" d="M 1.84,1.76 Q 1.84,1.76 0.43,3.08 -0.97,4.40 -1.99,5.40 -3.00,6.39 -3.93,7.26 -4.85,8.14 -5.73,8.94 -6.61,9.75 -7.94,10.98 -9.26,12.21 -10.42,13.31 -11.57,14.41 -12.41,15.24 -13.25,16.07 -13.32,14.37 -13.40,12.67 -14.41,12.06 -15.41,11.44 -13.81,11.28 -12.20,11.12 -10.41,11.12 -8.61,11.11 -7.40,11.14 -6.18,11.17 -4.95,11.19 -3.72,11.22 -2.34,11.27 -0.95,11.31 0.54,11.37 2.03,11.43 3.50,11.47 4.96,11.51 6.83,11.47 8.70,11.42 10.16,11.37 11.61,11.32 13.30,11.31 14.99,11.31 15.46,11.39 15.94,11.47 16.37,11.69 16.80,11.92 17.14,12.27 17.47,12.63 17.67,13.07 17.88,13.51 17.93,13.99 17.98,14.47 17.88,14.95 17.77,15.42 17.52,15.84 17.27,16.25 16.90,16.57 16.53,16.88 16.08,17.06 15.63,17.24 15.15,17.27 14.66,17.30 14.19,17.17 13.72,17.04 13.32,16.76 12.92,16.49 12.63,16.10 12.33,15.72 12.18,15.26 12.02,14.80 12.02,14.31 12.02,13.82 12.18,13.36 12.33,12.90 12.63,12.52 12.92,12.13 13.32,11.86 13.73,11.59 14.19,11.46 14.66,11.33 15.15,11.35 15.63,11.38 16.08,11.56 16.53,11.74 16.90,12.05 17.27,12.37 17.52,12.78 17.77,13.20 17.88,13.67 17.98,14.15 17.93,14.63 17.88,15.11 17.67,15.56 17.47,16.00 17.14,16.35 16.80,16.70 16.37,16.93 15.94,17.16 15.46,17.23 14.98,17.31 14.98,17.31 14.99,17.31 13.30,17.31 11.61,17.30 10.16,17.25 8.70,17.20 6.83,17.16 4.96,17.11 3.50,17.15 2.04,17.20 0.54,17.25 -0.95,17.31 -2.33,17.35 -3.72,17.40 -4.95,17.43 -6.17,17.46 -8.36,17.50 -10.55,17.54 -11.92,17.53 -13.29,17.52 -14.53,17.54 -15.78,17.57 -17.03,16.91 -18.27,16.25 -17.78,13.95 -17.30,11.65 -16.26,10.88 -15.22,10.11 -13.99,9.13 -12.76,8.15 -11.33,7.05 -9.90,5.95 -9.01,5.22 -8.12,4.49 -7.21,3.71 -6.29,2.94 -5.32,2.05 -4.35,1.15 -3.10,-0.30 -1.84,-1.76 -1.60,-1.96 -1.36,-2.15 -1.08,-2.29 -0.81,-2.42 -0.50,-2.48 -0.20,-2.54 0.10,-2.53 0.40,-2.52 0.70,-2.43 0.99,-2.35 1.26,-2.19 1.53,-2.04 1.75,-1.83 1.97,-1.61 2.14,-1.35 2.30,-1.09 2.40,-0.80 2.50,-0.51 2.52,-0.20 2.55,0.10 2.50,0.40 2.45,0.70 2.33,0.99 2.21,1.27 2.02,1.52 1.84,1.76 1.84,1.76 L 1.84,1.76 Z"></path></g><g transform="translate(1116.6132393603275 101.14738319388448) rotate(0 35.5 23)"><text x="35.5" y="19" font-family="Helvetica, Segoe UI Emoji" font-size="20px" fill="#364fc7" text-anchor="middle" style="white-space: pre;" direction="ltr">abstract</text><text x="35.5" y="42" font-family="Helvetica, Segoe UI Emoji" font-size="20px" fill="#364fc7" text-anchor="middle" style="white-space: pre;" direction="ltr">method</text></g></svg>