<svg version="1.1" xmlns="http://www.w3.org/2000/svg" viewBox="0 0 1440.500849419314 475.01133254390044" width="1440.500849419314" height="475.01133254390044">
  <!-- svg-source:excalidraw -->
  
  <defs>
    <style class="style-fonts">
      @font-face {
        font-family: "Virgil";
        src: url("https://excalidraw.com/Virgil.woff2");
      }
      @font-face {
        font-family: "Cascadia";
        src: url("https://excalidraw.com/Cascadia.woff2");
      }
    </style>
  </defs>
  <g stroke-linecap="round" transform="translate(10.18359375 11.878741648322858) rotate(0 138.076171875 55.59582987833073)"><path d="M0 0 C67.75 0, 135.51 0, 276.15 0 M0 0 C67.75 0, 135.49 0, 276.15 0 M276.15 0 C276.15 26.71, 276.15 53.41, 276.15 111.19 M276.15 0 C276.15 36.35, 276.15 72.7, 276.15 111.19 M276.15 111.19 C197.74 111.19, 119.33 111.19, 0 111.19 M276.15 111.19 C198.18 111.19, 120.2 111.19, 0 111.19 M0 111.19 C0 75.12, 0 39.06, 0 0 M0 111.19 C0 73.54, 0 35.9, 0 0" stroke="#364fc7" stroke-width="1" fill="none"></path></g><g stroke-linecap="round"><g transform="translate(10 63.00764789832286) rotate(0 136.861328125 0.201171875)"><path d="M0 0 C107.91 0.16, 215.82 0.32, 273.72 0.4 M0 0 C81.25 0.12, 162.51 0.24, 273.72 0.4" stroke="#364fc7" stroke-width="1" fill="none"></path></g></g><mask></mask><g transform="translate(92.587890625 25.01936664832286) rotate(0 59 12)"><text x="0" y="20" font-family="Cascadia, Segoe UI Emoji" font-size="20px" fill="#364fc7" text-anchor="start" style="white-space: pre;" direction="ltr">PizzaStore</text></g><g transform="translate(23.583984375 74.36702289832286) rotate(0 71 12)"><text x="0" y="20" font-family="Cascadia, Segoe UI Emoji" font-size="20px" fill="#364fc7" text-anchor="start" style="white-space: pre;" direction="ltr">orderPizza()</text></g><g stroke-linecap="round" transform="translate(385.93794502242963 12.158746413217102) rotate(0 138.076171875 55.59582987833073)"><path d="M0 0 C78 0, 156 0, 276.15 0 M0 0 C72.35 0, 144.71 0, 276.15 0 M276.15 0 C276.15 27, 276.15 54, 276.15 111.19 M276.15 0 C276.15 25.28, 276.15 50.55, 276.15 111.19 M276.15 111.19 C171.51 111.19, 66.87 111.19, 0 111.19 M276.15 111.19 C172.83 111.19, 69.51 111.19, 0 111.19 M0 111.19 C0 81.51, 0 51.83, 0 0 M0 111.19 C0 76.18, 0 41.16, 0 0" stroke="#364fc7" stroke-width="1" fill="none"></path></g><g stroke-linecap="round"><g transform="translate(385.75435127242963 63.2876526632171) rotate(0 136.861328125 0.201171875)"><path d="M0 0 C67.76 0.1, 135.52 0.2, 273.72 0.4 M0 0 C61.29 0.09, 122.58 0.18, 273.72 0.4" stroke="#364fc7" stroke-width="1" fill="none"></path></g></g><mask></mask><g transform="translate(418.7723660993711 25.76905682529781) rotate(0 106 12)"><text x="0" y="20" font-family="Cascadia, Segoe UI Emoji" font-size="20px" fill="#364fc7" text-anchor="start" style="white-space: pre;" direction="ltr">SimplePizzaFactory</text></g><g transform="translate(399.33833564742963 74.64702766321713) rotate(0 76.5 12)"><text x="0" y="20" font-family="Cascadia, Segoe UI Emoji" font-size="20px" fill="#364fc7" text-anchor="start" style="white-space: pre;" direction="ltr">createPizza()</text></g><g stroke-linecap="round" transform="translate(778.3902148551133 10) rotate(0 138.076171875 87.758742792128)"><path d="M0 0 C65.99 0, 131.97 0, 276.15 0 M0 0 C56.2 0, 112.4 0, 276.15 0 M276.15 0 C276.15 50.45, 276.15 100.91, 276.15 175.52 M276.15 0 C276.15 46.75, 276.15 93.49, 276.15 175.52 M276.15 175.52 C218.12 175.52, 160.08 175.52, 0 175.52 M276.15 175.52 C168.6 175.52, 61.05 175.52, 0 175.52 M0 175.52 C0 122.63, 0 69.74, 0 0 M0 175.52 C0 138.76, 0 101.99, 0 0" stroke="#364fc7" stroke-width="1" fill="none"></path></g><g stroke-linecap="round"><g transform="translate(778.2066211051133 61.12890625) rotate(0 136.861328125 0.201171875)"><path d="M0 0 C106.78 0.16, 213.55 0.31, 273.72 0.4 M0 0 C61.34 0.09, 122.69 0.18, 273.72 0.4" stroke="#364fc7" stroke-width="1" fill="none"></path></g></g><mask></mask><g transform="translate(887.2323809831955 24.2516116478063) rotate(0 30 12)"><text x="0" y="20" font-family="Cascadia, Segoe UI Emoji" font-size="20px" fill="#364fc7" text-anchor="start" style="white-space: pre;" direction="ltr">Pizza</text></g><g transform="translate(791.7906054801133 72.48828125) rotate(0 52.5 48)"><text x="0" y="20" font-family="Cascadia, Segoe UI Emoji" font-size="20px" fill="#364fc7" text-anchor="start" style="white-space: pre;" direction="ltr">prepare()</text><text x="0" y="44" font-family="Cascadia, Segoe UI Emoji" font-size="20px" fill="#364fc7" text-anchor="start" style="white-space: pre;" direction="ltr">back()</text><text x="0" y="68" font-family="Cascadia, Segoe UI Emoji" font-size="20px" fill="#364fc7" text-anchor="start" style="white-space: pre;" direction="ltr">cut()</text><text x="0" y="92" font-family="Cascadia, Segoe UI Emoji" font-size="20px" fill="#364fc7" text-anchor="start" style="white-space: pre;" direction="ltr">box()</text></g><g stroke-linecap="round" transform="translate(426.4216194917717 265.5556230603451) rotate(0 138.076171875 57.408333840334535)"><path d="M0 0 L276.15 0 L276.15 114.82 L0 114.82" stroke="none" stroke-width="0" fill="#ced4da"></path><path d="M0 0 C68.27 0, 136.55 0, 276.15 0 M0 0 C110.24 0, 220.48 0, 276.15 0 M276.15 0 C276.15 28.29, 276.15 56.58, 276.15 114.82 M276.15 0 C276.15 43.66, 276.15 87.32, 276.15 114.82 M276.15 114.82 C220.34 114.82, 164.52 114.82, 0 114.82 M276.15 114.82 C174.5 114.82, 72.84 114.82, 0 114.82 M0 114.82 C0 85.95, 0 57.08, 0 0 M0 114.82 C0 87.87, 0 60.92, 0 0" stroke="#364fc7" stroke-width="1" fill="none"></path></g><g stroke-linecap="round"><g transform="translate(426.2380257417717 316.6845293103451) rotate(0 136.861328125 0.201171875)"><path d="M0 0 C103.64 0.15, 207.27 0.3, 273.72 0.4 M0 0 C107.37 0.16, 214.74 0.32, 273.72 0.4" stroke="#364fc7" stroke-width="1" fill="none"></path></g></g><mask></mask><g transform="translate(489.00579413774904 279.476046276556) rotate(0 82.5 12)"><text x="0" y="20" font-family="Cascadia, Segoe UI Emoji" font-size="20px" fill="#364fc7" text-anchor="start" style="white-space: pre;" direction="ltr">PepperoniPizza</text></g><g stroke-linecap="round" transform="translate(606.6631294311028 350.19466486323137) rotate(0 138.076171875 57.408333840334535)"><path d="M0 0 L276.15 0 L276.15 114.82 L0 114.82" stroke="none" stroke-width="0" fill="#ced4da"></path><path d="M0 0 C91.29 0, 182.57 0, 276.15 0 M0 0 C68.7 0, 137.4 0, 276.15 0 M276.15 0 C276.15 42.62, 276.15 85.24, 276.15 114.82 M276.15 0 C276.15 41.82, 276.15 83.65, 276.15 114.82 M276.15 114.82 C177.27 114.82, 78.38 114.82, 0 114.82 M276.15 114.82 C213.3 114.82, 150.44 114.82, 0 114.82 M0 114.82 C0 83.17, 0 51.52, 0 0 M0 114.82 C0 89.97, 0 65.13, 0 0" stroke="#364fc7" stroke-width="1" fill="none"></path></g><g stroke-linecap="round"><g transform="translate(606.4795356811028 401.32357111323137) rotate(0 136.861328125 0.201171875)"><path d="M0 0 C86.05 0.13, 172.09 0.25, 273.72 0.4 M0 0 C67.44 0.1, 134.87 0.2, 273.72 0.4" stroke="#364fc7" stroke-width="1" fill="none"></path></g></g><mask></mask><g transform="translate(692.3100621318135 363.0041014316359) rotate(0 53 12)"><text x="0" y="20" font-family="Cascadia, Segoe UI Emoji" font-size="20px" fill="#364fc7" text-anchor="start" style="white-space: pre;" direction="ltr">ClamPizza</text></g><g stroke-linecap="round" transform="translate(1154.348505669314 271.7529569225465) rotate(0 138.076171875 57.408333840334535)"><path d="M0 0 L276.15 0 L276.15 114.82 L0 114.82" stroke="none" stroke-width="0" fill="#ced4da"></path><path d="M0 0 C91.32 0, 182.64 0, 276.15 0 M0 0 C57.81 0, 115.63 0, 276.15 0 M276.15 0 C276.15 39.75, 276.15 79.51, 276.15 114.82 M276.15 0 C276.15 25.68, 276.15 51.36, 276.15 114.82 M276.15 114.82 C191.66 114.82, 107.17 114.82, 0 114.82 M276.15 114.82 C184.52 114.82, 92.88 114.82, 0 114.82 M0 114.82 C0 91.21, 0 67.6, 0 0 M0 114.82 C0 84.47, 0 54.12, 0 0" stroke="#364fc7" stroke-width="1" fill="none"></path></g><g stroke-linecap="round"><g transform="translate(1154.164911919314 322.8818631725465) rotate(0 136.861328125 0.201171875)"><path d="M0 0 C77.99 0.11, 155.98 0.23, 273.72 0.4 M0 0 C57.08 0.08, 114.16 0.17, 273.72 0.4" stroke="#364fc7" stroke-width="1" fill="none"></path></g></g><mask></mask><g transform="translate(1227.2145757143667 284.562393490951) rotate(0 65 12)"><text x="0" y="20" font-family="Cascadia, Segoe UI Emoji" font-size="20px" fill="#364fc7" text-anchor="start" style="white-space: pre;" direction="ltr">CheesePizza</text></g><g stroke-linecap="round" transform="translate(908.4626835620538 342.24291958795897) rotate(0 138.076171875 57.408333840334535)"><path d="M0 0 L276.15 0 L276.15 114.82 L0 114.82" stroke="none" stroke-width="0" fill="#ced4da"></path><path d="M0 0 C109.92 0, 219.85 0, 276.15 0 M0 0 C81.75 0, 163.49 0, 276.15 0 M276.15 0 C276.15 23.96, 276.15 47.92, 276.15 114.82 M276.15 0 C276.15 37.83, 276.15 75.66, 276.15 114.82 M276.15 114.82 C180.51 114.82, 84.87 114.82, 0 114.82 M276.15 114.82 C185.41 114.82, 94.66 114.82, 0 114.82 M0 114.82 C0 83.22, 0 51.61, 0 0 M0 114.82 C0 69.88, 0 24.94, 0 0" stroke="#364fc7" stroke-width="1" fill="none"></path></g><g stroke-linecap="round"><g transform="translate(908.2790898120538 393.37182583795897) rotate(0 136.861328125 0.201171875)"><path d="M0 0 C101.96 0.15, 203.92 0.3, 273.72 0.4 M0 0 C90.72 0.13, 181.43 0.27, 273.72 0.4" stroke="#364fc7" stroke-width="1" fill="none"></path></g></g><mask></mask><g transform="translate(981.3287536071061 355.0523561563635) rotate(0 65 12)"><text x="0" y="20" font-family="Cascadia, Segoe UI Emoji" font-size="20px" fill="#364fc7" text-anchor="start" style="white-space: pre;" direction="ltr">VeggiePizza</text></g><g stroke-linecap="round"><g transform="translate(660.811686047668 261.70934975701863) rotate(0 86.85352083680596 -32.8728155385499)"><path d="M0 0 C49.15 -18.6, 98.3 -37.2, 173.71 -65.75" stroke="#364fc7" stroke-width="1.5" fill="none" stroke-dasharray="8 9"></path></g><g transform="translate(660.811686047668 261.70934975701863) rotate(0 86.85352083680596 -32.8728155385499)"><path d="M173.71 -65.75 L163.24 -55 L158.75 -66.86 L173.71 -65.75" stroke="none" stroke-width="0" fill="#364fc7" fill-rule="evenodd"></path><path d="M173.71 -65.75 C170.74 -62.71, 167.78 -59.67, 163.24 -55 M163.24 -55 C161.52 -59.54, 159.81 -64.07, 158.75 -66.86 M158.75 -66.86 C163.34 -66.52, 167.92 -66.18, 173.71 -65.75 M173.71 -65.75 C173.71 -65.75, 173.71 -65.75, 173.71 -65.75" stroke="#364fc7" stroke-width="1.5" fill="none"></path></g></g><mask></mask><g stroke-linecap="round"><g transform="translate(788.4132879267372 343.12771863604286) rotate(0 40.63917055455977 -71.84202528165383)"><path d="M0 0 C20.68 -36.56, 41.36 -73.12, 81.28 -143.68" stroke="#364fc7" stroke-width="1.5" fill="none" stroke-dasharray="8 9"></path></g><g transform="translate(788.4132879267372 343.12771863604286) rotate(0 40.63917055455977 -71.84202528165383)"><path d="M81.28 -143.68 L80.1 -128.73 L69.07 -134.97 L81.28 -143.68" stroke="none" stroke-width="0" fill="#364fc7" fill-rule="evenodd"></path><path d="M81.28 -143.68 C80.98 -139.88, 80.68 -136.07, 80.1 -128.73 M80.1 -128.73 C77.81 -130.03, 75.52 -131.32, 69.07 -134.97 M69.07 -134.97 C73.28 -137.98, 77.49 -140.98, 81.28 -143.68 M81.28 -143.68 C81.28 -143.68, 81.28 -143.68, 81.28 -143.68" stroke="#364fc7" stroke-width="1.5" fill="none"></path></g></g><mask></mask><g stroke-linecap="round"><g transform="translate(1002.8269209330115 332.89531900560047) rotate(0 -34.524624602055155 -69.30855988911901)"><path d="M0 0 C-21.34 -42.84, -42.68 -85.68, -69.05 -138.62" stroke="#364fc7" stroke-width="1.5" fill="none" stroke-dasharray="8 9"></path></g><g transform="translate(1002.8269209330115 332.89531900560047) rotate(0 -34.524624602055155 -69.30855988911901)"><path d="M-69.05 -138.62 L-57.31 -129.28 L-68.66 -123.62 L-69.05 -138.62" stroke="none" stroke-width="0" fill="#364fc7" fill-rule="evenodd"></path><path d="M-69.05 -138.62 C-65.42 -135.73, -61.79 -132.84, -57.31 -129.28 M-57.31 -129.28 C-61.23 -127.32, -65.14 -125.37, -68.66 -123.62 M-68.66 -123.62 C-68.76 -127.54, -68.86 -131.45, -69.05 -138.62 M-69.05 -138.62 C-69.05 -138.62, -69.05 -138.62, -69.05 -138.62" stroke="#364fc7" stroke-width="1.5" fill="none"></path></g></g><mask></mask><g stroke-linecap="round"><g transform="translate(1207.0444578047445 260.24683749356967) rotate(0 -92.63614911249965 -32.70685670014433)"><path d="M0 0 C-46.03 -16.25, -92.05 -32.5, -185.27 -65.41" stroke="#364fc7" stroke-width="1.5" fill="none" stroke-dasharray="8 9"></path></g><g transform="translate(1207.0444578047445 260.24683749356967) rotate(0 -92.63614911249965 -32.70685670014433)"><path d="M-185.27 -65.41 L-170.34 -66.87 L-174.56 -54.91 L-185.27 -65.41" stroke="none" stroke-width="0" fill="#364fc7" fill-rule="evenodd"></path><path d="M-185.27 -65.41 C-181.56 -65.77, -177.85 -66.13, -170.34 -66.87 M-170.34 -66.87 C-171.2 -64.44, -172.06 -62.01, -174.56 -54.91 M-174.56 -54.91 C-178.24 -58.51, -181.91 -62.12, -185.27 -65.41 M-185.27 -65.41 C-185.27 -65.41, -185.27 -65.41, -185.27 -65.41" stroke="#364fc7" stroke-width="1.5" fill="none"></path></g></g><mask></mask><g stroke-linecap="round"><g transform="translate(287.71028624348355 38.1835392795395) rotate(0 47.45126224973774 -0.8246079783276059)"><path d="M0 0 C35.45 -0.62, 70.89 -1.23, 94.9 -1.65 M0 0 C24.09 -0.42, 48.18 -0.84, 94.9 -1.65" stroke="#364fc7" stroke-width="1" fill="none"></path></g><g transform="translate(287.71028624348355 38.1835392795395) rotate(0 47.45126224973774 -0.8246079783276059)"><path d="M94.9 -1.65 L81.42 4.93 L81.2 -7.75 L94.9 -1.65" stroke="none" stroke-width="0" fill="#364fc7" fill-rule="evenodd"></path><path d="M94.9 -1.65 C89.87 0.81, 84.83 3.26, 81.42 4.93 M94.9 -1.65 C91.48 0.02, 88.06 1.69, 81.42 4.93 M81.42 4.93 C81.35 1.07, 81.29 -2.78, 81.2 -7.75 M81.42 4.93 C81.35 0.91, 81.28 -3.11, 81.2 -7.75 M81.2 -7.75 C85.69 -5.75, 90.17 -3.75, 94.9 -1.65 M81.2 -7.75 C86.18 -5.53, 91.16 -3.31, 94.9 -1.65 M94.9 -1.65 C94.9 -1.65, 94.9 -1.65, 94.9 -1.65 M94.9 -1.65 C94.9 -1.65, 94.9 -1.65, 94.9 -1.65" stroke="#364fc7" stroke-width="1" fill="none"></path></g></g><mask></mask><g stroke-linecap="round"><g transform="translate(662.6476056975293 32.71208382585644) rotate(0 55.68956271246316 -0.48231787411614846)"><path d="M0 0 C36.79 -0.32, 73.58 -0.64, 111.38 -0.96 M0 0 C25.6 -0.22, 51.2 -0.44, 111.38 -0.96" stroke="#364fc7" stroke-width="1" fill="none"></path></g><g transform="translate(662.6476056975293 32.71208382585644) rotate(0 55.68956271246316 -0.48231787411614846)"><path d="M111.38 -0.96 L97.84 5.49 L97.73 -7.19 L111.38 -0.96" stroke="none" stroke-width="0" fill="#364fc7" fill-rule="evenodd"></path><path d="M111.38 -0.96 C106.91 1.17, 102.44 3.3, 97.84 5.49 M111.38 -0.96 C108.27 0.52, 105.16 2, 97.84 5.49 M97.84 5.49 C97.82 2.64, 97.79 -0.21, 97.73 -7.19 M97.84 5.49 C97.81 1.68, 97.77 -2.13, 97.73 -7.19 M97.73 -7.19 C102.45 -5.04, 107.16 -2.89, 111.38 -0.96 M97.73 -7.19 C101.38 -5.52, 105.03 -3.86, 111.38 -0.96 M111.38 -0.96 C111.38 -0.96, 111.38 -0.96, 111.38 -0.96 M111.38 -0.96 C111.38 -0.96, 111.38 -0.96, 111.38 -0.96" stroke="#364fc7" stroke-width="1" fill="none"></path></g></g><mask></mask></svg>